<svg xmlns="http://www.w3.org/2000/svg" width="38.479" height="23.816" viewBox="0 0 38.479 23.816">
  <g id="Group_43" data-name="Group 43" transform="translate(-186.881 -119.182)">
    <path id="Path_33" data-name="Path 33" d="M214.365,142.12a1.292,1.292,0,0,1-1.825-1.828l7.913-7.913H188.672a1.291,1.291,0,1,1,0-2.582h31.781l-7.913-7.913a1.291,1.291,0,0,1,1.825-1.825l10.11,10.108.075.083h0l.039.046.008.01.015.018v0l.015.021.008.015.005.008.013.018.008.01.005.01.015.023a1.279,1.279,0,0,1,.178.656,1.3,1.3,0,0,1-.178.658l-.015.021-.005.013-.008.008-.013.021-.005.005-.008.018-.015.018v0l-.015.018-.008.01-.039.046v0l-.075.08-10.11,10.11Z" transform="translate(0 0)" fill="#fff" stroke="rgba(0,0,0,0)" stroke-miterlimit="10" stroke-width="1"/>
  </g>
</svg>
