<svg xmlns="http://www.w3.org/2000/svg" width="60" height="60" viewBox="0 0 81.045 76.576"><g data-name="New Symbol 1"><g data-name="Group 34"><g data-name="Group 29" fill="none" stroke="#fff" stroke-linecap="round" stroke-linejoin="round" stroke-width="2.09"><path data-name="Path 22" d="M69.191 54.849a5.85 5.85 0 01-4.744 3.753c-5.694.719-14.144.8-18.805-.227a3.948 3.948 0 01-3.092-3.681 85.724 85.724 0 01-.086-3.776"/><path data-name="Path 23" d="M42.464 50.765c.009-9.632 1.1-27.828 12.544-27.828 7.475 0 11.135 6.948 12.914 14.529"/></g><g data-name="Group 30" fill="none" stroke="#fff" stroke-linecap="round" stroke-linejoin="round" stroke-width="2.09"><path data-name="Path 24" d="M28.34 29.213c0 1.449.037 2.721.085 3.728a3.893 3.893 0 003.046 3.638c2.962.655 7.685.41 12.169-.032"/><path data-name="Path 25" d="M28.254 32.941a3.9 3.9 0 01-3.052 3.638c-4.606 1.017-13.484-.133-19.109-.842a5.776 5.776 0 01-5.048-5.8c.1-8.718 1.55-28.892 14.375-28.892 11.3 0 12.909 18.507 12.92 28.018.006-9.512 1.619-28.018 12.921-28.018 10.034 0 13.112 12.356 14.012 21.9"/></g><g data-name="Group 33" fill="none" stroke="#fff" stroke-linecap="round" stroke-linejoin="round" stroke-width="2.09"><path data-name="Line 1" d="M68.576 41.996v1.608"/><path data-name="Line 2" d="M68.576 48.578v1.608"/><path data-name="Line 3" d="M73.118 46.091h-1.783"/><path data-name="Line 4" d="M65.819 46.091h-1.783"/></g><path data-name="Path 30" d="M52.037 30.054a18.655 18.655 0 00-1.177 3.042" fill="none" stroke="#fff" stroke-linecap="round" stroke-linejoin="round" stroke-width="2.09"/><path data-name="Line 5" fill="none" stroke="#fff" stroke-linecap="round" stroke-linejoin="round" stroke-width="2.09" d="M50.327 37.863l-.899 8.32"/></g></g></svg>