<svg xmlns="http://www.w3.org/2000/svg" width="74.34" height="72.211" viewBox="0 0 74.34 72.211">
  <g id="Group_67" data-name="Group 67" transform="translate(-341.17 -345.72)">
    <g id="Group_53" data-name="Group 53" transform="translate(341.17 345.72)">
      <path id="Path_40" data-name="Path 40" d="M377.274,417.931a36.105,36.105,0,1,1,18.184-67.3,2.91,2.91,0,1,1-2.937,5.026,30.222,30.222,0,1,0,14.14,18.827,2.911,2.911,0,1,1,5.648-1.409,36.136,36.136,0,0,1-35.035,44.859Z" transform="translate(-341.17 -345.72)" fill="#fff"/>
    </g>
    <g id="Group_54" data-name="Group 54" transform="translate(358.388 348.522)">
      <path id="Path_41" data-name="Path 41" d="M433.6,405.33h-.036a2.91,2.91,0,0,1-2.233-1.086l-15.948-19.832a2.911,2.911,0,0,1,4.536-3.648l13.736,17.081,33.074-39.122a2.911,2.911,0,0,1,4.446,3.758L435.826,404.3A2.91,2.91,0,0,1,433.6,405.33Z" transform="translate(-414.744 -357.691)" fill="#fff"/>
    </g>
  </g>
</svg>
