<svg xmlns="http://www.w3.org/2000/svg" width="39.806" height="24.233" viewBox="0 0 39.806 24.233">
  <g id="Group_35" data-name="Group 35" transform="translate(-187.381 -119.682)">
    <path id="Path_33" data-name="Path 33" d="M216.041,143.513a1.372,1.372,0,0,1-1.939-1.941l8.4-8.4H188.752a1.371,1.371,0,1,1,0-2.742h33.754l-8.4-8.4a1.371,1.371,0,0,1,1.939-1.939l10.738,10.735.079.088h0l.041.049.008.011.016.019v0l.016.022.008.016.006.008.014.019.008.011.005.011.016.025a1.358,1.358,0,0,1,.189.7,1.376,1.376,0,0,1-.189.7l-.016.022-.005.014-.008.008-.014.022-.006.005-.008.019-.016.019v0l-.016.019-.008.011-.041.049v0l-.079.085-10.738,10.738Z" transform="translate(0 0)" fill="#146cb9"/>
  </g>
</svg>
