<svg xmlns="http://www.w3.org/2000/svg" xmlns:xlink="http://www.w3.org/1999/xlink" width="1146" height="489.824" viewBox="0 0 1146 489.824">
  <defs>
    <linearGradient id="linear-gradient" x1="0.016" y1="0.016" x2="0.98" y2="0.976" gradientUnits="objectBoundingBox">
      <stop offset="0" stop-color="#64e8de"/>
      <stop offset="1" stop-color="#8a64eb"/>
    </linearGradient>
    <filter id="Path_43" x="0" y="322.523" width="220" height="167.301" filterUnits="userSpaceOnUse">
      <feOffset input="SourceAlpha"/>
      <feGaussianBlur stdDeviation="15" result="blur"/>
      <feFlood flood-color="#a8a8a8" flood-opacity="0.302"/>
      <feComposite operator="in" in2="blur"/>
      <feComposite in="SourceGraphic"/>
    </filter>
    <filter id="Path_45" x="925.626" y="0" width="220.374" height="167.523" filterUnits="userSpaceOnUse">
      <feOffset input="SourceAlpha"/>
      <feGaussianBlur stdDeviation="15" result="blur-2"/>
      <feFlood flood-color="#a8a8a8" flood-opacity="0.302"/>
      <feComposite operator="in" in2="blur-2"/>
      <feComposite in="SourceGraphic"/>
    </filter>
  </defs>
  <g id="Group_64" data-name="Group 64" transform="translate(-215 -2911.477)">
    <g transform="matrix(1, 0, 0, 1, 215, 2911.48)" filter="url(#Path_43)">
      <path id="Path_43-2" data-name="Path 43" d="M854.618,848.884a31.673,31.673,0,0,1,18.816,8.24,27.393,27.393,0,0,1,7.726,26.683c-2.58,10.53-10.08,15.914-15.1,20.287-4.684,4.081-18.65,16.03-23.931,19.211-2.848,1.718-4.694,2.789-5.592,2.365-.72-.335-.151-4.107-.141-4.739.021-1.339,3.947-18.143,1.37-19.369a29.559,29.559,0,0,1-13.141-12.177,26.357,26.357,0,0,1,3.211-29.95,31.923,31.923,0,0,1,26.781-10.55Zm-69.384,0a31.935,31.935,0,0,0-26.784,10.55,26.353,26.353,0,0,0-3.209,29.95,29.573,29.573,0,0,0,13.133,12.177c2.58,1.227-1.341,18.03-1.361,19.369-.01.632-.58,4.4.136,4.739.9.424,2.747-.647,5.594-2.365,5.28-3.182,19.249-15.13,23.93-19.211,5.018-4.374,12.518-9.758,15.1-20.287a27.4,27.4,0,0,0-7.726-26.683,31.691,31.691,0,0,0-18.817-8.24Z" transform="translate(-706.99 -480.94)" opacity="0.3" fill="url(#linear-gradient)"/>
    </g>
    <g transform="matrix(1, 0, 0, 1, 215, 2911.48)" filter="url(#Path_45)">
      <path id="Path_45-2" data-name="Path 45" d="M854.914,848.886a31.764,31.764,0,0,1,18.87,8.264,27.472,27.472,0,0,1,7.749,26.76c-2.588,10.56-10.109,15.96-15.143,20.346-4.7,4.093-18.7,16.076-24,19.267-2.856,1.723-4.708,2.8-5.608,2.372-.722-.336-.151-4.119-.141-4.753.021-1.343,3.958-18.2,1.374-19.425A29.643,29.643,0,0,1,824.835,889.5a26.432,26.432,0,0,1,3.221-30.036,32.015,32.015,0,0,1,26.858-10.58Zm-69.583,0a32.027,32.027,0,0,0-26.861,10.58,26.429,26.429,0,0,0-3.218,30.036,29.658,29.658,0,0,0,13.171,12.212c2.587,1.23-1.345,18.082-1.365,19.425-.01.634-.582,4.417.136,4.753.9.425,2.755-.649,5.61-2.372,5.3-3.191,19.3-15.174,24-19.267,5.032-4.386,12.555-9.786,15.147-20.346a27.482,27.482,0,0,0-7.748-26.76,31.782,31.782,0,0,0-18.871-8.264Z" transform="translate(1852.99 970.99) rotate(180)" opacity="0.3" fill="url(#linear-gradient)"/>
    </g>
    <text id="Pasirinkau_dantų_laminates_nes:" data-name="Pasirinkau dantų laminates, nes:" transform="translate(667 3022)" fill="#146cb9" font-size="45" font-family="SegoeUI-Bold, Segoe UI" font-weight="700"><tspan x="-339.489" y="0">Pasirinkau dantų laminates, nes:</tspan></text>
    <text id="_Esu_žmogus_kuris_ieško_ne_trumpalaikės_išeities_o_ilgalaikio_rezultato._Būtent_todėl_pasirinkau_laminates_patvaresnį_natūralesnį_estetiškesnį_dantų_atkūrimo_metodą._Savo_pasirinkimu_tikrai_nenusivyliau._Laminatės_ir_šiandien_atrodo_nepriekaištingai_" data-name="„Esu žmogus, kuris ieško ne trumpalaikės išeities, o ilgalaikio
rezultato. Būtent todėl pasirinkau laminates – patvaresnį,
natūralesnį, estetiškesnį dantų atkūrimo metodą. Savo
pasirinkimu tikrai nenusivyliau. Laminatės ir šiandien atrodo
nepriekaištingai," transform="translate(306 3093)" fill="#707070" font-size="32" font-family="SegoeUI, Segoe UI"><tspan x="0" y="0">„Esu žmogus, kuris ieško ne trumpalaikės išeities, o ilgalaikio</tspan><tspan x="0" y="43">rezultato. Būtent todėl pasirinkau laminates – patvaresnį,</tspan><tspan x="0" y="86">natūralesnį, estetiškesnį dantų atkūrimo metodą. Savo</tspan><tspan x="0" y="129">pasirinkimu tikrai nenusivyliau. Laminatės ir šiandien atrodo</tspan><tspan x="0" y="172">nepriekaištingai, kaip tik ką uždėtos!“</tspan></text>
  </g>
</svg>
