<svg id="Component_7_1" data-name="Component 7 – 1" xmlns="http://www.w3.org/2000/svg" width="60" height="60" viewBox="0 0 123 123">
  <g id="Ellipse_3" data-name="Ellipse 3" fill="#146cb9" stroke="#146cb9" stroke-width="2">
    <circle cx="61.5" cy="61.5" r="61.5" stroke="none"/>
    <circle cx="61.5" cy="61.5" r="60.5" fill="none"/>
  </g>
  <g id="New_Symbol_1" data-name="New Symbol 1" transform="translate(-234.891 -239.61)">
    <g id="Group_34" data-name="Group 34" transform="translate(259.891 274.61)">
      <g id="Group_29" data-name="Group 29" transform="translate(41.419 21.892)">
        <path id="Path_22" data-name="Path 22" d="M475.306,505.744a5.85,5.85,0,0,1-4.744,3.753c-5.694.719-14.144.8-18.805-.227a3.948,3.948,0,0,1-3.092-3.681c-.046-1.023-.085-2.311-.086-3.776" transform="translate(-448.579 -473.832)" fill="none" stroke="#fff" stroke-linecap="round" stroke-linejoin="round" stroke-width="2.09"/>
        <path id="Path_23" data-name="Path 23" d="M448.579,402.17c.009-9.632,1.1-27.828,12.544-27.828,7.475,0,11.135,6.948,12.914,14.529" transform="translate(-448.579 -374.342)" fill="none" stroke="#fff" stroke-linecap="round" stroke-linejoin="round" stroke-width="2.09"/>
      </g>
      <g id="Group_30" data-name="Group 30" transform="translate(0 0)">
        <path id="Path_24" data-name="Path 24" d="M384.236,402.932c0,1.449.037,2.721.085,3.728a3.893,3.893,0,0,0,3.046,3.638c2.962.655,7.685.41,12.169-.032" transform="translate(-356.941 -374.764)" fill="none" stroke="#fff" stroke-linecap="round" stroke-linejoin="round" stroke-width="2.09"/>
        <path id="Path_25" data-name="Path 25" d="M287.1,306.506a3.9,3.9,0,0,1-3.052,3.638c-4.606,1.017-13.484-.133-19.109-.842a5.776,5.776,0,0,1-5.048-5.8c.1-8.718,1.55-28.892,14.375-28.892,11.3,0,12.909,18.507,12.92,28.018.006-9.512,1.619-28.018,12.921-28.018,10.034,0,13.112,12.356,14.012,21.9" transform="translate(-259.891 -274.61)" fill="none" stroke="#fff" stroke-linecap="round" stroke-linejoin="round" stroke-width="2.09"/>
      </g>
      <g id="Group_31" data-name="Group 31" transform="translate(49.828 73.088)">
        <path id="Path_26" data-name="Path 26" d="M511.031,618.7" transform="translate(-505.732 -616.255)" fill="none" stroke="#fff" stroke-linecap="round" stroke-linejoin="round" stroke-width="2.09"/>
        <path id="Path_27" data-name="Path 27" d="M522.161,607.57" transform="translate(-514.419 -607.57)" fill="none" stroke="#fff" stroke-linecap="round" stroke-linejoin="round" stroke-width="2.09"/>
        <path id="Path_28" data-name="Path 28" d="M486.89,607.57" transform="translate(-486.89 -607.57)" fill="none" stroke="#fff" stroke-linecap="round" stroke-linejoin="round" stroke-width="2.09"/>
      </g>
      <g id="Group_32" data-name="Group 32" transform="translate(80 63.664)">
        <path id="Path_29" data-name="Path 29" d="M624.34,564.64" transform="translate(-624.34 -564.64)" fill="none" stroke="#fff" stroke-linecap="round" stroke-linejoin="round" stroke-width="2.09"/>
      </g>
      <g id="Group_33" data-name="Group 33" transform="translate(62.991 40.951)">
        <line id="Line_1" data-name="Line 1" y2="1.608" transform="translate(4.54)" fill="none" stroke="#fff" stroke-linecap="round" stroke-linejoin="round" stroke-width="2.09"/>
        <line id="Line_2" data-name="Line 2" y2="1.608" transform="translate(4.54 6.582)" fill="none" stroke="#fff" stroke-linecap="round" stroke-linejoin="round" stroke-width="2.09"/>
        <line id="Line_3" data-name="Line 3" x1="1.783" transform="translate(7.299 4.095)" fill="none" stroke="#fff" stroke-linecap="round" stroke-linejoin="round" stroke-width="2.09"/>
        <line id="Line_4" data-name="Line 4" x1="1.783" transform="translate(0 4.095)" fill="none" stroke="#fff" stroke-linecap="round" stroke-linejoin="round" stroke-width="2.09"/>
      </g>
      <path id="Path_30" data-name="Path 30" d="M488.008,406.764a18.655,18.655,0,0,0-1.177,3.042" transform="translate(-437.016 -377.755)" fill="none" stroke="#fff" stroke-linecap="round" stroke-linejoin="round" stroke-width="2.09"/>
      <line id="Line_5" data-name="Line 5" x1="0.899" y2="8.32" transform="translate(48.383 36.818)" fill="none" stroke="#fff" stroke-linecap="round" stroke-linejoin="round" stroke-width="2.09"/>
    </g>
  </g>
</svg>
